<?xml version="1.0" encoding="utf-8"?>
<!-- Generator: Adobe Illustrator 16.0.0, SVG Export Plug-In . SVG Version: 6.00 Build 0)  -->
<!DOCTYPE svg PUBLIC "-//W3C//DTD SVG 1.1//EN" "http://www.w3.org/Graphics/SVG/1.1/DTD/svg11.dtd">
<svg version="1.1" id="Слой_1" xmlns="http://www.w3.org/2000/svg" xmlns:xlink="http://www.w3.org/1999/xlink" x="0px" y="0px"
	 width="283.46px" height="283.46px" viewBox="0 0 283.46 283.46" enable-background="new 0 0 283.46 283.46" xml:space="preserve">
<path fill="none" stroke="#000000" stroke-miterlimit="10" d="M275.334,179.667"/>
<path fill="none" stroke="#000000" stroke-miterlimit="10" d="M228,186.667"/>
<path fill="none" stroke="#000000" stroke-miterlimit="10" d="M236.479,197.459"/>
<path fill="#576B93" d="M141.73,2.86c-44.259,0-80.139,35.879-80.139,80.139c0,12.643,2.927,24.601,8.142,35.235l71.997,159.493
	l72.643-160.844c4.809-10.292,7.495-21.774,7.495-33.884C221.868,38.739,185.989,2.86,141.73,2.86z M141.729,95.637
	c-9.373,0-16.97-7.598-16.97-16.971s7.598-16.971,16.97-16.971c9.373,0,16.971,7.598,16.971,16.971S151.103,95.637,141.729,95.637z"
	/>
</svg>
